<svg width="390" height="844" viewBox="0 0 390 844" xmlns="http://www.w3.org/2000/svg">
  <rect width="390" height="844" fill="#F9FAFB"/>
  <text x="24" y="52" font-size="20" font-family="Inter" fill="#111827">分析</text>
  <rect x="24" y="88" width="342" height="92" rx="12" fill="#FFFFFF" stroke="#E5E7EB"/>
  <text x="40" y="120" font-size="14" font-family="Inter" fill="#4B5563">今日状态</text>
  <text x="40" y="150" font-size="18" font-family="Inter" fill="#16A34A">轻微超标，晚餐可纠偏</text>
  <rect x="24" y="196" width="342" height="180" rx="12" fill="#FFFFFF" stroke="#E5E7EB"/>
  <text x="40" y="226" font-size="14" font-family="Inter" fill="#111827">近 7 日摄入趋势</text>
  <rect x="44" y="320" width="18" height="36" fill="#16A34A"/>
  <rect x="76" y="300" width="18" height="56" fill="#16A34A"/>
  <rect x="108" y="280" width="18" height="76" fill="#F59E0B"/>
  <rect x="140" y="262" width="18" height="94" fill="#EF4444"/>
  <rect x="172" y="292" width="18" height="64" fill="#F59E0B"/>
  <rect x="204" y="310" width="18" height="46" fill="#16A34A"/>
  <rect x="236" y="272" width="18" height="84" fill="#EF4444"/>
  <rect x="24" y="392" width="342" height="120" rx="12" fill="#FFFFFF" stroke="#E5E7EB"/>
  <text x="40" y="424" font-size="14" font-family="Inter" fill="#111827">高风险餐次</text>
  <text x="40" y="448" font-size="12" font-family="Inter" fill="#4B5563">周三午餐：奶茶+炸鸡（高糖/高油）</text>
  <text x="40" y="470" font-size="12" font-family="Inter" fill="#4B5563">建议：无糖茶饮 + 烤鸡替代</text>
</svg>
